<svg width="96" height="96" viewBox="0 0 96 96" fill="none" xmlns="http://www.w3.org/2000/svg">
  <!-- Background circle with gradient -->
  <circle cx="48" cy="48" r="48" fill="url(#gradient1)"/>
  
  <!-- Mint leaf shape -->
  <path d="M24 32C24 28 28 24 32 24C36 24 40 28 40 32C40 36 36 40 32 40C28 40 24 36 24 32Z" fill="url(#gradient2)"/>
  
  <!-- AI circuit pattern -->
  <rect x="52" y="28" width="8" height="2" rx="1" fill="white" opacity="0.8"/>
  <rect x="52" y="32" width="12" height="2" rx="1" fill="white" opacity="0.8"/>
  <rect x="52" y="36" width="6" height="2" rx="1" fill="white" opacity="0.8"/>
  <rect x="60" y="36" width="4" height="2" rx="1" fill="white" opacity="0.8"/>
  
  <!-- Video play icon -->
  <path d="M52 48L68 56L68 40L52 48Z" fill="white" opacity="0.9"/>
  
  <!-- Neural network nodes -->
  <circle cx="60" cy="64" r="2" fill="white" opacity="0.7"/>
  <circle cx="68" cy="68" r="2" fill="white" opacity="0.7"/>
  <circle cx="56" cy="72" r="2" fill="white" opacity="0.7"/>
  
  <!-- Connection lines -->
  <line x1="60" y1="64" x2="68" y2="68" stroke="white" stroke-width="1" opacity="0.5"/>
  <line x1="60" y1="64" x2="56" y2="72" stroke="white" stroke-width="1" opacity="0.5"/>
  <line x1="68" y1="68" x2="56" y2="72" stroke="white" stroke-width="1" opacity="0.5"/>
  
  <!-- Gradients -->
  <defs>
    <linearGradient id="gradient1" x1="0%" y1="0%" x2="100%" y2="100%">
      <stop offset="0%" style="stop-color:#10B981;stop-opacity:1" />
      <stop offset="50%" style="stop-color:#059669;stop-opacity:1" />
      <stop offset="100%" style="stop-color:#047857;stop-opacity:1" />
    </linearGradient>
    <linearGradient id="gradient2" x1="0%" y1="0%" x2="100%" y2="100%">
      <stop offset="0%" style="stop-color:#34D399;stop-opacity:1" />
      <stop offset="100%" style="stop-color:#10B981;stop-opacity:1" />
    </linearGradient>
  </defs>
</svg>
